<mxfile host="app.diagrams.net" modified="2022-03-17T19:38:11.428Z" agent="5.0 (Windows)" etag="6OT7KPZZdp5ZneCT8I8a" version="17.1.3" type="github">
  <diagram id="jhjuaJg0HUwXcN8Nafew" name="Seite-1">
    <mxGraphModel dx="1422" dy="780" grid="1" gridSize="10" guides="1" tooltips="1" connect="1" arrows="1" fold="1" page="1" pageScale="1" pageWidth="827" pageHeight="1169" math="0" shadow="0">
      <root>
        <mxCell id="0" />
        <mxCell id="1" parent="0" />
      </root>
    </mxGraphModel>
  </diagram>
</mxfile>
